<svg width="103" height="24" viewBox="0 0 103 24" fill="none" xmlns="http://www.w3.org/2000/svg">
<rect width="103" height="24" fill="#F5F5F5"/>
<path d="M-768 -193C-768 -216.196 -749.196 -235 -726 -235H830C853.196 -235 872 -216.196 872 -193V1957C872 1980.2 853.196 1999 830 1999H-726C-749.196 1999 -768 1980.2 -768 1957V-193Z" fill="#EFEFEF"/>
<path d="M-726 -234H830V-236H-726V-234ZM871 -193V1957H873V-193H871ZM830 1998H-726V2000H830V1998ZM-767 1957V-193H-769V1957H-767ZM-726 1998C-748.644 1998 -767 1979.64 -767 1957H-769C-769 1980.75 -749.748 2000 -726 2000V1998ZM871 1957C871 1979.64 852.644 1998 830 1998V2000C853.748 2000 873 1980.75 873 1957H871ZM830 -234C852.644 -234 871 -215.644 871 -193H873C873 -216.748 853.748 -236 830 -236V-234ZM-726 -236C-749.748 -236 -769 -216.748 -769 -193H-767C-767 -215.644 -748.644 -234 -726 -234V-236Z" fill="black" fill-opacity="0.1"/>
<g filter="url(#filter0_d_1_2)">
<rect x="-668" y="-135" width="1440" height="772" rx="20" fill="#F5F7FA"/>
<g clip-path="url(#clip0_1_2)">
<path d="M15.316 8.72905L17.0468 4.7206C17.2647 4.21588 17.8693 4.01927 18.336 4.30195C18.7285 4.53964 18.8837 5.03654 18.6986 5.4591L17.0189 9.29735C16.7209 9.97912 16.0546 10.4183 15.3198 10.4183C14.5735 10.4183 13.8995 9.96543 13.6083 9.26898L10.3057 1.3636L6.78423 9.30029C6.48242 9.98108 5.81419 10.4193 5.07846 10.4193C4.32441 10.4193 3.64365 9.95956 3.35244 9.25431L0.0720354 1.29513C-0.181564 0.679873 0.263923 6.10352e-05 0.921546 6.10352e-05C1.29568 6.10352e-05 1.6322 0.228948 1.77395 0.579124L5.0746 8.72905L8.37236 1.26774C8.71275 0.495982 9.46873 6.10352e-05 10.3018 6.10352e-05C11.1533 6.10352e-05 11.9218 0.518479 12.2516 1.31567L15.316 8.72905Z" fill="url(#paint0_linear_1_2)"/>
<path d="M21.5929 0C22.1117 0 22.5317 0.424516 22.5317 0.948803V9.47042C22.5317 9.99471 22.1117 10.4192 21.5929 10.4192C21.0741 10.4192 20.6541 9.99471 20.6541 9.47042V0.948803C20.6541 0.424516 21.0751 0 21.5929 0Z" fill="#333333"/>
<path d="M26.2982 0.948803V8.72899H33.4258C33.8904 8.72899 34.2673 9.10753 34.2673 9.57411C34.2673 10.0407 33.8904 10.4192 33.4258 10.4192H25.52C24.9064 10.4192 24.4097 9.91939 24.4097 9.30414V0.948803C24.4097 0.424516 24.8324 0 25.3544 0C25.8765 0 26.2992 0.424516 26.2992 0.948803H26.2982Z" fill="#333333"/>
<path d="M37.5642 0.948803V8.72899H44.6918C45.1564 8.72899 45.5333 9.10753 45.5333 9.57411C45.5333 10.0407 45.1564 10.4192 44.6918 10.4192H36.786C36.1724 10.4192 35.6757 9.91939 35.6757 9.30414V0.948803C35.6757 0.424516 36.0984 0 36.6194 0C37.1415 0 37.5642 0.424516 37.5642 0.948803Z" fill="#333333"/>
<path d="M47.8801 0C48.3989 0 48.8189 0.424516 48.8189 0.948803V9.47042C48.8189 9.99471 48.3989 10.4192 47.8801 10.4192C47.3613 10.4192 46.9413 9.99471 46.9413 9.47042V0.948803C46.9413 0.424516 47.3613 0 47.8801 0Z" fill="#333333"/>
<path d="M61.5164 8.61144V0.948892C61.5164 0.424556 61.9313 0 62.4437 0C62.9561 0 63.371 0.424556 63.371 0.948892V8.73372C63.371 9.665 62.6339 10.4192 61.7239 10.4192C61.0824 10.4192 60.4687 10.1531 60.0213 9.68261L52.5514 1.80779V9.47033C52.5514 9.99467 52.1365 10.4192 51.6241 10.4192C51.1117 10.4192 50.6968 9.99467 50.6968 9.47033V1.68551C50.6968 0.754222 51.4348 0 52.344 0C52.9854 0 53.5991 0.266081 54.0465 0.736614L61.5164 8.61144Z" fill="#333333"/>
<path d="M76.539 8.61144V0.948892C76.539 0.424556 76.9539 0 77.4653 0C77.9777 0 78.3926 0.424556 78.3926 0.948892V8.73372C78.3926 9.665 77.6555 10.4192 76.7455 10.4192C76.104 10.4192 75.4903 10.1531 75.0429 9.68261L67.573 1.80779V9.47033C67.573 9.99467 67.1581 10.4192 66.6457 10.4192C66.1333 10.4192 65.7184 9.99467 65.7184 9.47033V1.68551C65.7194 0.754222 66.4564 0 67.3665 0C68.008 0 68.6217 0.266081 69.0691 0.736614L76.539 8.61144Z" fill="#333333"/>
<path d="M15.0216 15.6289H15.7136L16.2038 17.3833H16.2113L16.6928 15.6289H17.3687V17.9969H16.9487V16.027H16.9411L16.3819 17.9969H16.0084L15.4491 16.027H15.4416V17.9969H15.0216V15.6289Z" fill="#333333"/>
<path d="M17.8376 16.8129C17.8376 15.9987 18.1239 15.6289 18.777 15.6289C19.4302 15.6289 19.7153 15.9996 19.7153 16.8129C19.7153 17.6262 19.4291 17.9969 18.777 17.9969C18.125 17.9969 17.8376 17.6262 17.8376 16.8129ZM19.2622 16.8032C19.2622 16.0369 19.0478 15.903 18.777 15.903C18.5063 15.903 18.2919 16.0369 18.2919 16.8032C18.2919 17.5694 18.5063 17.7229 18.777 17.7229C19.0478 17.7229 19.2622 17.5854 19.2622 16.8032Z" fill="#333333"/>
<path d="M20.1848 15.6289H20.5305L20.8762 17.5196H20.8818L21.2473 15.6289H21.5931L21.0792 17.9969H20.6653L20.1856 15.6289H20.1848Z" fill="#333333"/>
<path d="M22.532 15.6289H23.9115V15.9475H22.9392V16.6039H23.8539V16.9225H22.9392V17.6784H23.9403V17.9969H22.532V15.6307V15.6289Z" fill="#333333"/>
<path d="M25.8795 15.9476H25.3484V15.6289H26.7567V15.9476H26.2352V17.9969H25.8795V15.9476Z" fill="#333333"/>
<path d="M27.6953 15.6289H28.0616V16.577H28.7371V15.6289H29.1035V17.9969H28.7371V16.8958H28.0616V17.9969H27.6953V15.6289Z" fill="#333333"/>
<path d="M30.0425 15.6298H30.8073C31.1109 15.6298 31.3571 15.7994 31.3571 16.2398C31.3571 16.5448 31.2357 16.7807 30.9962 16.8203V16.8267C31.2146 16.8498 31.3242 16.9797 31.336 17.3105C31.3394 17.4662 31.3394 17.6486 31.3478 17.7914C31.3571 17.9075 31.4052 17.961 31.4507 17.9969H31.0594C31.0257 17.9536 31.0105 17.8808 31.0021 17.7878C30.9962 17.7177 30.9928 17.6449 30.9928 17.5758C30.9928 17.5067 30.9895 17.4266 30.9869 17.34C30.9777 17.081 30.9051 16.9686 30.6715 16.9686H30.3891V17.9969H30.0433V15.6289L30.0425 15.6298ZM30.6648 16.6848C30.8866 16.6848 31.0105 16.5393 31.0105 16.2997C31.0105 16.0472 30.9136 15.9145 30.6825 15.9145H30.3882V16.6839H30.6648V16.6848Z" fill="#333333"/>
<path d="M32.3896 16.8129C32.3896 15.9987 32.6042 15.6289 33.0938 15.6289C33.5833 15.6289 33.7979 15.9996 33.7979 16.8129C33.7979 17.6262 33.5833 17.9969 33.0938 17.9969C32.6042 17.9969 32.3896 17.6262 32.3896 16.8129ZM33.4574 16.8032C33.4574 16.0369 33.2967 15.903 33.0938 15.903C32.8908 15.903 32.7301 16.0369 32.7301 16.8032C32.7301 17.5694 32.8908 17.7229 33.0938 17.7229C33.2967 17.7229 33.4574 17.5854 33.4574 16.8032Z" fill="#333333"/>
<path d="M35.1048 15.6289V17.294C35.1048 17.5903 35.2212 17.7168 35.4432 17.7168C35.6652 17.7168 35.778 17.5903 35.778 17.294V15.6289H36.1451V17.2651C36.1451 17.8018 35.881 17.9969 35.4423 17.9969C35.0036 17.9969 34.7368 17.8018 34.7368 17.2651V15.6289H35.1039H35.1048Z" fill="#333333"/>
<path d="M38.1378 17.6874H38.1298C38.0016 17.9011 37.8334 17.9969 37.4867 17.9969C36.8437 17.9969 36.6137 17.6262 36.6137 16.8129C36.6137 15.9996 36.9101 15.6289 37.5897 15.6289C38.3266 15.6289 38.4502 16.0794 38.4502 16.287V16.3287H38.0051V16.2746C38.0051 16.1052 37.9147 15.9038 37.5932 15.9038C37.2716 15.9038 37.0828 16.0759 37.0828 16.804C37.0828 17.5322 37.2396 17.7237 37.5565 17.7237C37.9147 17.7273 38.0463 17.526 38.0463 17.0275H37.552V16.7526H38.4914V17.9526H38.1367V17.6874H38.1378Z" fill="#333333"/>
<path d="M38.9612 15.6289H39.4497V16.577H40.3504V15.6289H40.8389V17.9969H40.3504V16.8958H39.4497V17.9969H38.9612V15.6289Z" fill="#333333"/>
<path d="M42.7169 15.6289H43.1863V17.9969H42.7169V15.6289Z" fill="#333333"/>
<path d="M44.1252 15.6289H44.5543L45.1937 17.3934H45.1997V15.6289H45.5335V17.9969H45.1044L44.4651 16.1864H44.4591V17.9969H44.1252V15.6289Z" fill="#333333"/>
<path d="M46.4717 15.6289H46.9008L47.5401 17.3934H47.5461V15.6289H47.8799V17.9969H47.4508L46.8115 16.1864H46.8055V17.9969H46.4717V15.6289Z" fill="#333333"/>
<path d="M48.8189 16.8129C48.8189 15.9987 49.0335 15.6289 49.523 15.6289C50.0126 15.6289 50.2271 15.9996 50.2271 16.8129C50.2271 17.6262 50.0126 17.9969 49.523 17.9969C49.0335 17.9969 48.8189 17.6262 48.8189 16.8129ZM49.8867 16.8032C49.8867 16.0369 49.726 15.903 49.523 15.903C49.3201 15.903 49.1594 16.0369 49.1594 16.8032C49.1594 17.5694 49.3201 17.7229 49.523 17.7229C49.726 17.7229 49.8867 17.5854 49.8867 16.8032Z" fill="#333333"/>
<path d="M50.6968 15.6289H51.1578L51.6188 17.5196H51.6262L52.1135 15.6289H52.5745L51.8894 17.9969H51.3375L50.6979 15.6289H50.6968Z" fill="#333333"/>
<path d="M53.7532 15.6289H54.2634L54.9214 17.9969H54.5054L54.3518 17.4164H53.621L53.4597 17.9969H53.0437L53.7541 15.6289H53.7532ZM54.2848 17.1151L53.9981 15.9477H53.9913L53.6939 17.1151H54.2848Z" fill="#333333"/>
<path d="M55.4526 15.9476H54.9216V15.6289H56.3299V15.9476H55.8084V17.9969H55.4526V15.9476Z" fill="#333333"/>
<path d="M57.2681 15.6289H57.7375V17.9969H57.2681V15.6289Z" fill="#333333"/>
<path d="M58.2069 16.8129C58.2069 15.9987 58.493 15.6289 59.1457 15.6289C59.7985 15.6289 60.0846 15.9996 60.0846 16.8129C60.0846 17.6262 59.7985 17.9969 59.1457 17.9969C58.493 17.9969 58.2069 17.6262 58.2069 16.8129ZM59.6306 16.8032C59.6306 16.0369 59.4163 15.903 59.1457 15.903C58.8751 15.903 58.6609 16.0369 58.6609 16.8032C58.6609 17.5694 58.8751 17.7229 59.1457 17.7229C59.4163 17.7229 59.6306 17.5854 59.6306 16.8032Z" fill="#333333"/>
<path d="M60.5541 15.6289H61.1262L61.9786 17.3934H61.9866V15.6289H62.4317V17.9969H61.8596L61.0072 16.1864H60.9992V17.9969H60.5541V15.6289Z" fill="#333333"/>
</g>
</g>
<defs>
<filter id="filter0_d_1_2" x="-708" y="-171" width="1520" height="852" filterUnits="userSpaceOnUse" color-interpolation-filters="sRGB">
<feFlood flood-opacity="0" result="BackgroundImageFix"/>
<feColorMatrix in="SourceAlpha" type="matrix" values="0 0 0 0 0 0 0 0 0 0 0 0 0 0 0 0 0 0 127 0" result="hardAlpha"/>
<feOffset dy="4"/>
<feGaussianBlur stdDeviation="20"/>
<feComposite in2="hardAlpha" operator="out"/>
<feColorMatrix type="matrix" values="0 0 0 0 0 0 0 0 0 0 0 0 0 0 0 0 0 0 0.1 0"/>
<feBlend mode="normal" in2="BackgroundImageFix" result="effect1_dropShadow_1_2"/>
<feBlend mode="normal" in="SourceGraphic" in2="effect1_dropShadow_1_2" result="shape"/>
</filter>
<linearGradient id="paint0_linear_1_2" x1="-0.000283875" y1="5.20967" x2="18.7767" y2="5.20967" gradientUnits="userSpaceOnUse">
<stop stop-color="#F92892"/>
<stop offset="0.01" stop-color="#F72793"/>
<stop offset="0.47" stop-color="#CD12C5"/>
<stop offset="0.81" stop-color="#B304E5"/>
<stop offset="1" stop-color="#AA00F1"/>
</linearGradient>
<clipPath id="clip0_1_2">
<rect width="102.332" height="23.6801" fill="white"/>
</clipPath>
</defs>
</svg>
